<svg xmlns="http://www.w3.org/2000/svg" xmlns:xlink="http://www.w3.org/1999/xlink" width="198" height="199" viewBox="0 0 198 199">
  <defs>
    <clipPath id="clip-path">
      <rect id="Rectangle_15" data-name="Rectangle 15" width="198" height="199"/>
    </clipPath>
  </defs>
  <g id="Confetti" transform="translate(-779 -360)">
    <path id="Path_8608" data-name="Path 8608" d="M954.474,468.187a5.287,5.287,0,1,1-5.287-5.287,5.288,5.288,0,0,1,5.287,5.287Zm0,0" transform="translate(-74.087 -46.231)" fill="#6addc7"/>
    <path id="Path_8609" data-name="Path 8609" d="M1014.307,440.7l4.351,7.6-4.351,7.6h-8.756l-4.351-7.6,4.351-7.6Zm0,0" transform="translate(-99.831 -36.257)" fill="#f08675"/>
    <path id="Path_8610" data-name="Path 8610" d="M1116.707,654.1l4.351,7.6-4.351,7.6h-8.756l-4.351-7.6,4.351-7.6Zm0,0" transform="translate(-145.837 -132.134)" fill="#f08675"/>
    <path id="Path_8611" data-name="Path 8611" d="M839.707,662.9l4.351,7.6-4.351,7.6h-8.756l-4.351-7.6,4.351-7.6Zm0,0" transform="translate(-21.386 -136.088)" fill="#7173e3"/>
    <path id="Path_8612" data-name="Path 8612" d="M807.365,452.083a5.783,5.783,0,1,1-5.782-5.783,5.782,5.782,0,0,1,5.782,5.783Zm0,0" transform="translate(-7.548 -38.773)" fill="#7173e3"/>
    <path id="Path_8613" data-name="Path 8613" d="M878.207,360l4.351,7.6-4.351,7.6h-8.756l-4.351-7.6,4.351-7.6Zm0,0" transform="translate(-38.683)" fill="#d4e1f4"/>
    <path id="Path_8614" data-name="Path 8614" d="M888.949,587.825a7.325,7.325,0,1,1-7.325-7.325,7.321,7.321,0,0,1,7.325,7.325Zm0,0" transform="translate(-42.817 -99.067)" fill="#d4e1f4"/>
    <path id="Path_8615" data-name="Path 8615" d="M1097.132,420.433l-7.269,8.481-13.162-1.487,8.811-9.527h0Zm0,0" transform="translate(-133.752 -26.014)" fill="#61a3bc"/>
    <path id="Path_8616" data-name="Path 8616" d="M1113.826,465.532l-8.812,9.527-11.014-2.2,7.324-8.756Zm0,0" transform="translate(-141.524 -46.77)" fill="#61a3bc"/>
    <path id="Path_8617" data-name="Path 8617" d="M880.424,453.2l9.527,10.243L877.23,466.8,865.5,456.559Zm0,0" transform="translate(-38.863 -41.873)" fill="#49c160"/>
    <path id="Path_8618" data-name="Path 8618" d="M876.466,517.348l-14.924,3.3L852.4,511.18l12.942-3.58Zm0,0" transform="translate(-32.977 -66.314)" fill="#49c160"/>
    <path id="Path_8619" data-name="Path 8619" d="M1003.078,580.638l-10.519,7.93L977.8,583.556l12.5-8.756Zm0,0" transform="translate(-89.318 -96.506)" fill="#efcc3a"/>
    <path id="Path_8620" data-name="Path 8620" d="M1011.117,636.236l-12.556,8.756h0L986.5,639.706l10.629-8.206h0Zm0,0" transform="translate(-93.226 -121.98)" fill="#efcc3a"/>
    <path id="Path_8621" data-name="Path 8621" d="M1108.3,428.962l-4.516-13.162L1084.4,438.49l5.342,12.666Zm0,0" transform="translate(-137.211 -25.07)" fill="#55d8d8"/>
    <g id="Group_7660" data-name="Group 7660" transform="translate(779 360)">
      <g id="Group_7658" data-name="Group 7658" clip-path="url(#clip-path)">
        <path id="Path_8622" data-name="Path 8622" d="M1118.227,479.652,1113.6,466.6l-20.1,21.808,6.553,17.953a2.538,2.538,0,0,0,3.194,1.487,2.5,2.5,0,0,0,1.542-3.194l-2.644-7.545Zm0,0" transform="translate(-920.3 -407.894)" fill="#55d8d8"/>
      </g>
      <g id="Group_7659" data-name="Group 7659" clip-path="url(#clip-path)">
        <path id="Path_8623" data-name="Path 8623" d="M1086.9,361.858a2.456,2.456,0,1,0-4.626,1.652l2.533,7.214L1068.4,388.513l4.626,13.052,20.1-21.808Zm0,0" transform="translate(-909.023 -360.096)" fill="#55d8d8"/>
      </g>
    </g>
    <path id="Path_8624" data-name="Path 8624" d="M906.2,402.322,901.407,401l-2.7,9.858L869.74,417.3,865.5,433l33.7-7.545.606.165Zm0,0" transform="translate(-38.863 -18.421)" fill="#94cc60"/>
    <path id="Path_8625" data-name="Path 8625" d="M829.795,532.58l-5.672,20.6a2.453,2.453,0,0,0,1.707,3.029,2.486,2.486,0,0,0,3.029-1.762l1.928-7.159,28.637-6.388,4.241-15.7Zm0,0" transform="translate(-20.23 -74.222)" fill="#94cc60"/>
    <path id="Path_8626" data-name="Path 8626" d="M855.7,478.022l-3.3,15.861,32.823-9.032,4.406-15.75Zm0,0" transform="translate(-32.977 -49.017)" fill="#94cc60"/>
    <path id="Path_8627" data-name="Path 8627" d="M1009.176,579.1,981.2,600.247l2.919,15.916,26.93-20.817Zm0,0" transform="translate(-90.845 -98.438)" fill="#eadf53"/>
    <path id="Path_8628" data-name="Path 8628" d="M1009.965,656.236l-1.983-16.136L979.4,660.036l2.7,21.863a2.469,2.469,0,1,0,4.9-.606l-1.046-8.316Zm0,0" transform="translate(-90.036 -125.844)" fill="#eadf53"/>
    <path id="Path_8629" data-name="Path 8629" d="M999.413,510.775a2.471,2.471,0,0,0-2.148,2.754l1.046,8.316L974.3,538.586l1.983,16.136,28.582-19.936-2.7-21.864a2.432,2.432,0,0,0-2.754-2.148Zm0,0" transform="translate(-87.745 -67.727)" fill="#eadf53"/>
    <path id="Path_8630" data-name="Path 8630" d="M1093.827,436.7l-9.527,11.18,5.342,12.666,9.583-11.455Zm0,0" transform="translate(-137.166 -34.46)" fill="#97fffc"/>
    <path id="Path_8631" data-name="Path 8631" d="M1078.213,392.1l-9.913,10.739,4.626,13.052,9.913-10.739Zm0,0" transform="translate(-129.978 -14.422)" fill="#97fffc"/>
    <path id="Path_8632" data-name="Path 8632" d="M855.7,482.829l-3.3,15.861,11.565-3.3,3.249-15.585Zm0,0" transform="translate(-32.977 -53.824)" fill="#afe274"/>
    <path id="Path_8633" data-name="Path 8633" d="M991.939,603.2,981.2,611.075l2.919,15.916L994.8,618.73Zm0,0" transform="translate(-90.845 -109.266)" fill="#fff69f"/>
    <path id="Path_8634" data-name="Path 8634" d="M985.039,547.8,974.3,555.235l1.983,16.136,10.739-7.49Zm0,0" transform="translate(-87.745 -84.375)" fill="#fff69f"/>
    <path id="Path_8635" data-name="Path 8635" d="M809.274,392.845a2.638,2.638,0,0,1-1.927-.881l-2.313-2.809a8.531,8.531,0,0,1-.936-9.472,3.533,3.533,0,0,0-.826-4.406l-1.928-1.6a2.482,2.482,0,1,1,3.194-3.8l1.927,1.6a8.609,8.609,0,0,1,2.038,10.574,3.5,3.5,0,0,0,.385,3.965l2.313,2.809a2.479,2.479,0,0,1-1.928,4.02Zm0,0" transform="translate(-9.622 -4.153)" fill="#cecece"/>
    <path id="Path_8636" data-name="Path 8636" d="M910.528,668.664a2.506,2.506,0,0,1-2.478-2.258l-.275-3.414a11.581,11.581,0,0,1,2.643-8.261,6.483,6.483,0,0,0,1.322-5.177l-.5-2.148a2.485,2.485,0,1,1,4.846-1.1l.5,2.148a11.366,11.366,0,0,1-2.478,9.638,6.448,6.448,0,0,0-1.432,4.516l.275,3.414a2.511,2.511,0,0,1-2.258,2.7.2.2,0,0,0-.165-.055Zm0,0" transform="translate(-57.842 -127.754)" fill="#cecece"/>
    <g id="Group_7663" data-name="Group 7663" transform="translate(779 360)">
      <g id="Group_7661" data-name="Group 7661" clip-path="url(#clip-path)">
        <path id="Path_8637" data-name="Path 8637" d="M1109.762,587.612a2.492,2.492,0,0,1-2.423-3.084l.881-3.525a3.548,3.548,0,0,0-1.377-3.745,8.564,8.564,0,0,1-2.754-10.409l1.046-2.258c1.377-3.029,5.893-.936,4.516,2.038l-1.046,2.258a3.527,3.527,0,0,0,1.156,4.351,8.4,8.4,0,0,1,3.249,8.922l-.881,3.525a2.368,2.368,0,0,1-2.368,1.927Zm0,0" transform="translate(-924.721 -451.255)" fill="#1ae5be"/>
      </g>
      <g id="Group_7662" data-name="Group 7662" clip-path="url(#clip-path)">
        <path id="Path_8638" data-name="Path 8638" d="M785.562,582.312a2.492,2.492,0,0,1-2.423-3.084l.881-3.525a3.548,3.548,0,0,0-1.377-3.745,8.564,8.564,0,0,1-2.754-10.409l1.046-2.258c1.377-3.029,5.893-.936,4.516,2.038l-1.046,2.258a3.527,3.527,0,0,0,1.156,4.351,8.4,8.4,0,0,1,3.249,8.922l-.881,3.525a2.456,2.456,0,0,1-2.368,1.927Zm0,0" transform="translate(-779.063 -448.874)" fill="#cecece"/>
      </g>
    </g>
    <path id="Path_8639" data-name="Path 8639" d="M991.762,390.212a2.492,2.492,0,0,1-2.423-3.084l.881-3.525a3.548,3.548,0,0,0-1.377-3.745,8.564,8.564,0,0,1-2.754-10.409l1.046-2.258c1.377-3.029,5.893-.936,4.516,2.038l-1.046,2.258a3.528,3.528,0,0,0,1.156,4.351,8.4,8.4,0,0,1,3.249,8.922l-.881,3.525a2.368,2.368,0,0,1-2.368,1.927Zm0,0" transform="translate(-92.706 -2.566)" fill="#cecece"/>
    <path id="Path_8640" data-name="Path 8640" d="M830.84,536.278l-4.24,16.081,11.62-2.588,4.24-15.971Zm0,0" transform="translate(-21.386 -78.085)" fill="#afe274"/>
    <path id="Path_8641" data-name="Path 8641" d="M869.84,428.678l-4.24,15.7,11.62-2.588,4.24-15.585Zm0,0" transform="translate(-38.908 -29.743)" fill="#afe274"/>
    <path id="Path_8642" data-name="Path 8642" d="M990.039,662.9,979.3,670.335l1.983,16.136,10.739-7.49Zm0,0" transform="translate(-89.991 -136.088)" fill="#fff69f"/>
    <path id="Path_8643" data-name="Path 8643" d="M1103.413,486.8l-9.913,10.739,4.626,13.052,9.913-10.739Zm0,0" transform="translate(-141.3 -56.969)" fill="#97fffc"/>
  </g>
</svg>
