<svg xmlns="http://www.w3.org/2000/svg" width="181.05" height="198.809" viewBox="0 0 181.05 198.809">
  <g id="Cost" transform="translate(-785 -348)">
    <path id="Path_8597" data-name="Path 8597" d="M788.106,348H899.315a3.116,3.116,0,0,1,3.106,3.106V543.7a3.116,3.116,0,0,1-3.106,3.106H788.106A3.116,3.116,0,0,1,785,543.7v-192.6A3.115,3.115,0,0,1,788.106,348Zm0,0" transform="translate(0)" fill="#f1f4fb" fill-rule="evenodd"/>
    <path id="Path_8598" data-name="Path 8598" d="M987.1,348h9.733a3.115,3.115,0,0,1,3.106,3.106V543.7a3.116,3.116,0,0,1-3.106,3.106H987.1a3.116,3.116,0,0,0,3.106-3.106v-192.6A3.115,3.115,0,0,0,987.1,348Zm0,0" transform="translate(-97.467)" fill="#cecece" fill-rule="evenodd"/>
    <path id="Path_8599" data-name="Path 8599" d="M962.933,625.66h74.5a9.711,9.711,0,0,0,9.682-9.733V521.233a9.744,9.744,0,0,0-9.682-9.733h-74.5a9.755,9.755,0,0,0-9.733,9.733v94.693a9.789,9.789,0,0,0,9.733,9.733Zm0,0" transform="translate(-81.118 -78.851)" fill="#f0c087" fill-rule="evenodd"/>
    <path id="Path_8600" data-name="Path 8600" d="M1097.2,625.66h9.733a9.711,9.711,0,0,0,9.682-9.733V521.233a9.744,9.744,0,0,0-9.682-9.733H1097.2a9.755,9.755,0,0,1,9.733,9.733v94.693a9.789,9.789,0,0,1-9.733,9.733Zm0,0" transform="translate(-150.565 -78.851)" fill="#e6af78" fill-rule="evenodd"/>
    <path id="Path_8601" data-name="Path 8601" d="M857.431,418.262A18.431,18.431,0,1,0,839,399.831a18.472,18.472,0,0,0,18.431,18.431Zm0,0" transform="translate(-26.043 -16.108)" fill="#b4e66e" fill-rule="evenodd"/>
    <path id="Path_8602" data-name="Path 8602" d="M905.031,418.262A18.431,18.431,0,1,0,886.6,399.831a18.472,18.472,0,0,0,18.431,18.431Zm0,0" transform="translate(-48.999 -16.108)" fill="#dae169" fill-rule="evenodd"/>
    <path id="Path_8603" data-name="Path 8603" d="M809.2,504.514a2.875,2.875,0,0,1,0-4.09,2.937,2.937,0,0,1,4.142,0l4.349,4.349L828.464,494a2.929,2.929,0,0,1,4.142,4.142l-12.84,12.788a2.875,2.875,0,0,1-4.09,0Zm0,81.543a2.929,2.929,0,0,1,4.142-4.142l4.349,4.349L828.464,575.5a2.929,2.929,0,0,1,4.142,4.142l-12.84,12.84a2.875,2.875,0,0,1-4.09,0Zm0-27.181a2.875,2.875,0,0,1,0-4.09,2.937,2.937,0,0,1,4.142,0l4.349,4.349,10.769-10.769a2.929,2.929,0,0,1,4.142,4.142L819.766,565.3a2.937,2.937,0,0,1-4.142,0Zm0-27.181a2.875,2.875,0,0,1,0-4.09,2.937,2.937,0,0,1,4.142,0l4.349,4.349,10.769-10.769a2.929,2.929,0,0,1,4.142,4.142l-12.84,12.788a2.875,2.875,0,0,1-4.09,0Zm0,0" transform="translate(-11.261 -70.001)" fill="#b4e66e"/>
    <path id="Path_8604" data-name="Path 8604" d="M876.4,511.3a2.9,2.9,0,0,1,0-5.8H901.25a2.9,2.9,0,0,1,0,5.8Zm0,81.543a2.9,2.9,0,0,1,0-5.8H901.25a2.9,2.9,0,0,1,0,5.8Zm0-27.181a2.9,2.9,0,0,1,0-5.8H901.25a2.9,2.9,0,0,1,0,5.8Zm0-27.181a2.9,2.9,0,0,1,0-5.8H901.25a2.9,2.9,0,0,1,0,5.8Zm0,0" transform="translate(-42.681 -75.957)" fill="#5b5d6e"/>
    <path id="Path_8605" data-name="Path 8605" d="M978.405,534.3h64.975a3.115,3.115,0,0,1,3.106,3.106v13.72a3.115,3.115,0,0,1-3.106,3.106H978.405a3.116,3.116,0,0,1-3.106-3.106v-13.72a3.051,3.051,0,0,1,3.106-3.106Zm0,0" transform="translate(-91.774 -89.847)" fill="#faf6f5" fill-rule="evenodd"/>
    <path id="Path_8606" data-name="Path 8606" d="M1088,534.3h9.733a3.116,3.116,0,0,1,3.106,3.106v13.72a3.115,3.115,0,0,1-3.106,3.106H1088a3.115,3.115,0,0,0,3.106-3.106v-13.72A3.116,3.116,0,0,0,1088,534.3Zm0,0" transform="translate(-146.128 -89.847)" fill="#ececec" fill-rule="evenodd"/>
    <path id="Path_8607" data-name="Path 8607" d="M978.405,595.3h9.733a3.116,3.116,0,0,1,3.106,3.106V604a3.115,3.115,0,0,1-3.106,3.106h-9.733A3.116,3.116,0,0,1,975.3,604v-5.591a3.051,3.051,0,0,1,3.106-3.106Zm0,46.906h9.733a3.115,3.115,0,0,1,3.106,3.106V650.9a3.115,3.115,0,0,1-3.106,3.106h-9.733A3.116,3.116,0,0,1,975.3,650.9v-5.591a3.051,3.051,0,0,1,3.106-3.106Zm55.19,0h9.733a3.115,3.115,0,0,1,3.106,3.106V650.9a3.115,3.115,0,0,1-3.106,3.106H1033.6a3.115,3.115,0,0,1-3.106-3.106v-5.591a3.115,3.115,0,0,1,3.106-3.106Zm-27.6,0h9.733a3.115,3.115,0,0,1,3.106,3.106V650.9a3.115,3.115,0,0,1-3.106,3.106H1006a3.116,3.116,0,0,1-3.106-3.106v-5.591a3.116,3.116,0,0,1,3.106-3.106Zm-27.6-23.453h9.733a3.115,3.115,0,0,1,3.106,3.106v5.592a3.116,3.116,0,0,1-3.106,3.106h-9.733a3.116,3.116,0,0,1-3.106-3.106V621.86a3.051,3.051,0,0,1,3.106-3.106Zm55.19,0h9.733a3.115,3.115,0,0,1,3.106,3.106v5.592a3.115,3.115,0,0,1-3.106,3.106H1033.6a3.116,3.116,0,0,1-3.106-3.106V621.86a3.115,3.115,0,0,1,3.106-3.106Zm-27.6,0h9.733a3.115,3.115,0,0,1,3.106,3.106v5.592a3.116,3.116,0,0,1-3.106,3.106H1006a3.116,3.116,0,0,1-3.106-3.106V621.86a3.116,3.116,0,0,1,3.106-3.106Zm27.6-23.453h9.733a3.115,3.115,0,0,1,3.106,3.106V604a3.115,3.115,0,0,1-3.106,3.106H1033.6a3.115,3.115,0,0,1-3.106-3.106v-5.591a3.116,3.116,0,0,1,3.106-3.106Zm-27.6,0h9.733a3.116,3.116,0,0,1,3.106,3.106V604a3.115,3.115,0,0,1-3.106,3.106H1006a3.115,3.115,0,0,1-3.106-3.106v-5.591A3.116,3.116,0,0,1,1006,595.3Zm0,0" transform="translate(-91.774 -119.265)" fill="#fff" fill-rule="evenodd"/>
  </g>
</svg>
