<?xml version="1.0" encoding="utf-8"?>
<!-- Generator: Adobe Illustrator 23.0.5, SVG Export Plug-In . SVG Version: 6.00 Build 0)  -->
<svg version="1.1" id="Layer_1" xmlns="http://www.w3.org/2000/svg" xmlns:xlink="http://www.w3.org/1999/xlink" x="0px" y="0px"
	 viewBox="0 0 218.4 226.5" enable-background="new 0 0 218.4 226.5" xml:space="preserve">
<g>
	<g>
		<circle fill="#F4F4F4" cx="114" cy="116.1" r="60.5"/>
	</g>
	<g>
		<path fill="#ECECEC" d="M114.3,179.8c-36.1,0-65.5-29.4-65.5-65.5s29.4-65.5,65.5-65.5s65.5,29.4,65.5,65.5
			S150.4,179.8,114.3,179.8z M114.3,58.8c-30.6,0-55.5,24.9-55.5,55.5c0,30.6,24.9,55.5,55.5,55.5s55.5-24.9,55.5-55.5
			C169.8,83.7,144.9,58.8,114.3,58.8z"/>
	</g>
	<g>
		<path fill="#6CF082" d="M114.3,179.8c-36.1,0-65.5-29.4-65.5-65.5c0-2.8,2.2-5,5-5s5,2.2,5,5c0,30.6,24.9,55.5,55.5,55.5
			c2.8,0,5,2.2,5,5S117,179.8,114.3,179.8z"/>
	</g>
	<g>
		<circle fill="#6CF082" cx="55.4" cy="100.3" r="5"/>
	</g>
	<g>
		<path fill="#7D7D7D" d="M105.7,121.1c0.5,0,1,0.2,1.3,0.5c0.4,0.4,0.5,0.8,0.5,1.3c0,0.5-0.2,1-0.5,1.3c-0.4,0.4-0.8,0.5-1.3,0.5
			h0c-1.2,0-2.2-0.2-3.1-0.5c-0.9-0.4-1.7-0.8-2.3-1.5c-0.6-0.6-1.1-1.4-1.4-2.2c-0.3-0.9-0.5-1.8-0.5-2.8v-5.4
			c-0.9,0-1.6,0.3-2.2,0.8c-0.5,0.5-0.8,1.4-0.8,2.7v9h-9.2c-1.2,0-2.2-0.2-3.1-0.5c-0.9-0.3-1.7-0.8-2.3-1.4s-1.1-1.4-1.4-2.2
			c-0.3-0.9-0.5-1.9-0.5-3.1v-7.1H85v3.7h-1.8v3.4c0,1.2,0.3,2.1,0.8,2.7c0.5,0.5,1.3,0.8,2.2,0.8h4.9v-5.3c0-1.2,0.2-2.2,0.5-3.1
			c0.3-0.9,0.8-1.7,1.5-2.3c0.6-0.6,1.4-1,2.3-1.4c0.9-0.3,1.9-0.5,3.1-0.5h4.4v9.2c0,1.1,0.3,1.9,0.8,2.4
			C104,120.9,104.8,121.1,105.7,121.1z M85,130.3c-0.4-0.4-0.7-0.8-0.7-1.4s0.2-1,0.7-1.4c0.4-0.3,0.9-0.5,1.5-0.5
			c0.6,0,1.1,0.2,1.5,0.5c0.4,0.3,0.7,0.8,0.7,1.4c0,0.6-0.2,1.1-0.7,1.4c-0.4,0.3-0.9,0.5-1.5,0.5S85.4,130.6,85,130.3z
			 M89.9,130.3c-0.4-0.4-0.7-0.8-0.7-1.4s0.2-1,0.7-1.4c0.4-0.3,0.9-0.5,1.5-0.5c0.6,0,1.1,0.2,1.5,0.5s0.7,0.8,0.7,1.4
			c0,0.6-0.2,1.1-0.7,1.4c-0.4,0.3-0.9,0.5-1.5,0.5C90.8,130.8,90.3,130.6,89.9,130.3z"/>
		<path fill="#7D7D7D" d="M105.7,121.1c0.9,0,1.6-0.3,2.2-0.8c0.5-0.6,0.8-1.4,0.8-2.4v-13h4.4v12.9c0,1-0.2,2-0.5,2.8
			s-0.8,1.6-1.4,2.2s-1.4,1.1-2.3,1.5c-0.9,0.3-1.9,0.5-3.1,0.5V121.1z"/>
		<path fill="#7D7D7D" d="M119.2,124.3c-0.9-0.4-1.7-0.8-2.3-1.5c-0.6-0.6-1.1-1.4-1.4-2.2c-0.3-0.9-0.5-1.8-0.5-2.8v-12.9h4.4v12.9
			c0,1.1,0.3,1.9,0.8,2.4c0.5,0.5,1.2,0.8,2.1,0.8c0.5,0,1,0.2,1.3,0.5c0.4,0.4,0.5,0.8,0.5,1.3c0,0.5-0.2,1-0.5,1.3
			c-0.4,0.4-0.8,0.5-1.3,0.5C121.1,124.9,120.1,124.7,119.2,124.3z"/>
		<path fill="#7D7D7D" d="M126.4,121.1c0.5,0,1,0.2,1.3,0.5c0.4,0.4,0.5,0.8,0.5,1.3c0,0.5-0.2,1-0.5,1.3c-0.4,0.4-0.8,0.5-1.3,0.5
			h-4.1c-0.5,0-1-0.2-1.3-0.5c-0.4-0.4-0.5-0.8-0.5-1.3c0-0.5,0.2-1,0.5-1.3c0.4-0.4,0.8-0.5,1.3-0.5H126.4z"/>
		<path fill="#7D7D7D" d="M131.5,123.2c-0.6,0.5-1.3,0.9-2.1,1.2c-0.9,0.3-1.9,0.5-3.1,0.5v-3.7c0.9,0,1.6-0.3,2.1-0.8
			c0.5-0.5,0.8-1.4,0.8-2.6l0-7.2h6.1v3.7h-1.8v3.6c0,1.1,0.3,1.9,0.8,2.4c0.5,0.6,1.2,0.8,2.1,0.8c0.5,0,1,0.2,1.3,0.5
			c0.4,0.4,0.5,0.8,0.5,1.3c0,0.5-0.2,1-0.5,1.3c-0.4,0.4-0.8,0.5-1.3,0.5h-0.1c-1.1,0-2.2-0.2-3-0.5
			C132.7,124,132.1,123.7,131.5,123.2z M127.4,108.2c-0.4-0.4-0.7-0.8-0.7-1.4c0-0.6,0.2-1,0.7-1.4c0.4-0.3,0.9-0.5,1.5-0.5
			c0.6,0,1.1,0.2,1.5,0.5c0.4,0.3,0.7,0.8,0.7,1.4c0,0.6-0.2,1-0.7,1.4c-0.4,0.3-0.9,0.5-1.5,0.5S127.8,108.5,127.4,108.2z
			 M132.6,108.2c-0.4-0.4-0.7-0.8-0.7-1.4c0-0.6,0.2-1,0.7-1.4c0.4-0.3,0.9-0.5,1.5-0.5c0.6,0,1.1,0.2,1.5,0.5
			c0.4,0.3,0.7,0.8,0.7,1.4c0,0.6-0.2,1-0.7,1.4c-0.4,0.3-0.9,0.5-1.5,0.5C133.5,108.7,133,108.5,132.6,108.2z"/>
		<path fill="#7D7D7D" d="M136.6,121.1c0.9,0,1.6-0.3,2.2-0.8c0.5-0.6,0.8-1.4,0.8-2.4v-13h4.4v12.9c0,1-0.2,2-0.5,2.8
			s-0.8,1.6-1.4,2.2s-1.4,1.1-2.3,1.5c-0.9,0.3-1.9,0.5-3.1,0.5V121.1z"/>
		<path fill="#7D7D7D" d="M145.9,124.9v-20h4.1v16.2h1.5v3.7H145.9z"/>
	</g>
</g>
</svg>
