<?xml version="1.0" encoding="utf-8"?>
<!-- Generator: Adobe Illustrator 23.0.5, SVG Export Plug-In . SVG Version: 6.00 Build 0)  -->
<svg version="1.1" id="Layer_1" xmlns="http://www.w3.org/2000/svg" xmlns:xlink="http://www.w3.org/1999/xlink" x="0px" y="0px"
	 viewBox="0 0 218.4 226.5" enable-background="new 0 0 218.4 226.5" xml:space="preserve">
<g>
	<g>
		<circle fill="#F4F4F4" cx="112.9" cy="124.5" r="60.5"/>
	</g>
	<g>
		<path fill="#ECECEC" d="M113.2,188.1c-36.1,0-65.5-29.4-65.5-65.5s29.4-65.5,65.5-65.5s65.5,29.4,65.5,65.5
			S149.3,188.1,113.2,188.1z M113.2,67.1c-30.6,0-55.5,24.9-55.5,55.5c0,30.6,24.9,55.5,55.5,55.5s55.5-24.9,55.5-55.5
			C168.7,92,143.8,67.1,113.2,67.1z"/>
	</g>
	<g>
		<circle fill="#6CF082" cx="128.8" cy="63.9" r="5"/>
	</g>
	<g>
		<path fill="#7D7D7D" d="M104.6,129.5c0.5,0,1,0.2,1.3,0.5c0.4,0.4,0.5,0.8,0.5,1.3c0,0.5-0.2,1-0.5,1.3c-0.4,0.4-0.8,0.5-1.3,0.5
			h0c-1.2,0-2.2-0.2-3.1-0.5c-0.9-0.4-1.7-0.8-2.3-1.5c-0.6-0.6-1.1-1.4-1.4-2.2c-0.3-0.9-0.5-1.8-0.5-2.8v-5.4
			c-0.9,0-1.6,0.3-2.2,0.8c-0.5,0.5-0.8,1.4-0.8,2.7v9h-9.2c-1.2,0-2.2-0.2-3.1-0.5c-0.9-0.3-1.7-0.8-2.3-1.4s-1.1-1.4-1.4-2.2
			c-0.3-0.9-0.5-1.9-0.5-3.1v-7.1h6.1v3.7h-1.8v3.4c0,1.2,0.3,2.1,0.8,2.7c0.5,0.5,1.3,0.8,2.2,0.8H90v-5.3c0-1.2,0.2-2.2,0.5-3.1
			c0.3-0.9,0.8-1.7,1.5-2.3c0.6-0.6,1.4-1,2.3-1.4c0.9-0.3,1.9-0.5,3.1-0.5h4.4v9.2c0,1.1,0.3,1.9,0.8,2.4
			C103,129.2,103.7,129.5,104.6,129.5z M84,138.6c-0.4-0.4-0.7-0.8-0.7-1.4s0.2-1,0.7-1.4c0.4-0.3,0.9-0.5,1.5-0.5
			c0.6,0,1.1,0.2,1.5,0.5c0.4,0.3,0.7,0.8,0.7,1.4c0,0.6-0.2,1.1-0.7,1.4c-0.4,0.3-0.9,0.5-1.5,0.5S84.4,139,84,138.6z M88.9,138.6
			c-0.4-0.4-0.7-0.8-0.7-1.4s0.2-1,0.7-1.4c0.4-0.3,0.9-0.5,1.5-0.5c0.6,0,1.1,0.2,1.5,0.5s0.7,0.8,0.7,1.4c0,0.6-0.2,1.1-0.7,1.4
			c-0.4,0.3-0.9,0.5-1.5,0.5C89.8,139.1,89.3,139,88.9,138.6z"/>
		<path fill="#7D7D7D" d="M104.6,129.5c0.9,0,1.6-0.3,2.2-0.8c0.5-0.6,0.8-1.4,0.8-2.4v-13h4.4v12.9c0,1-0.2,2-0.5,2.8
			c-0.3,0.9-0.8,1.6-1.4,2.2s-1.4,1.1-2.3,1.5c-0.9,0.3-1.9,0.5-3.1,0.5V129.5z"/>
		<path fill="#7D7D7D" d="M118.1,132.7c-0.9-0.4-1.7-0.8-2.3-1.5c-0.6-0.6-1.1-1.4-1.4-2.2c-0.3-0.9-0.5-1.8-0.5-2.8v-12.9h4.4v12.9
			c0,1.1,0.3,1.9,0.8,2.4c0.5,0.5,1.2,0.8,2.1,0.8c0.5,0,1,0.2,1.3,0.5c0.4,0.4,0.5,0.8,0.5,1.3s-0.2,1-0.5,1.3
			c-0.4,0.4-0.8,0.5-1.3,0.5C120.1,133.2,119,133,118.1,132.7z"/>
		<path fill="#7D7D7D" d="M125.3,129.5c0.5,0,1,0.2,1.3,0.5c0.4,0.4,0.5,0.8,0.5,1.3c0,0.5-0.2,1-0.5,1.3c-0.4,0.4-0.8,0.5-1.3,0.5
			h-4.1c-0.5,0-1-0.2-1.3-0.5c-0.4-0.4-0.5-0.8-0.5-1.3c0-0.5,0.2-1,0.5-1.3c0.4-0.4,0.8-0.5,1.3-0.5H125.3z"/>
		<path fill="#7D7D7D" d="M130.4,131.5c-0.6,0.5-1.3,0.9-2.1,1.2c-0.9,0.3-1.9,0.5-3.1,0.5v-3.7c0.9,0,1.6-0.3,2.1-0.8
			c0.5-0.5,0.8-1.4,0.8-2.6l0-7.2h6.1v3.7h-1.8v3.6c0,1.1,0.3,1.9,0.8,2.4c0.5,0.6,1.2,0.8,2.1,0.8c0.5,0,1,0.2,1.3,0.5
			c0.4,0.4,0.5,0.8,0.5,1.3c0,0.5-0.2,1-0.5,1.3c-0.4,0.4-0.8,0.5-1.3,0.5h-0.1c-1.1,0-2.2-0.2-3-0.5
			C131.6,132.4,131,132,130.4,131.5z M126.3,116.5c-0.4-0.4-0.7-0.8-0.7-1.4c0-0.6,0.2-1,0.7-1.4c0.4-0.3,0.9-0.5,1.5-0.5
			c0.6,0,1.1,0.2,1.5,0.5c0.4,0.3,0.7,0.8,0.7,1.4c0,0.6-0.2,1-0.7,1.4c-0.4,0.3-0.9,0.5-1.5,0.5S126.7,116.8,126.3,116.5z
			 M131.5,116.5c-0.4-0.4-0.7-0.8-0.7-1.4c0-0.6,0.2-1,0.7-1.4c0.4-0.3,0.9-0.5,1.5-0.5c0.6,0,1.1,0.2,1.5,0.5
			c0.4,0.3,0.7,0.8,0.7,1.4c0,0.6-0.2,1-0.7,1.4c-0.4,0.3-0.9,0.5-1.5,0.5C132.4,117,131.9,116.8,131.5,116.5z"/>
		<path fill="#7D7D7D" d="M135.5,129.5c0.9,0,1.6-0.3,2.2-0.8c0.5-0.6,0.8-1.4,0.8-2.4v-13h4.4v12.9c0,1-0.2,2-0.5,2.8
			c-0.3,0.9-0.8,1.6-1.4,2.2s-1.4,1.1-2.3,1.5c-0.9,0.3-1.9,0.5-3.1,0.5V129.5z"/>
		<path fill="#7D7D7D" d="M144.8,133.2v-20h4.1v16.2h1.5v3.7H144.8z"/>
	</g>
	<g>
		<path fill="#6CF082" d="M112.9,188c-36.1,0-65.5-29.4-65.5-65.5s29.4-65.5,65.5-65.5c2.8,0,5,2.2,5,5s-2.2,5-5,5
			c-30.6,0-55.5,24.9-55.5,55.5c0,30.6,24.9,55.5,55.5,55.5c2.8,0,5,2.2,5,5S115.7,188,112.9,188z"/>
	</g>
</g>
</svg>
