<?xml version="1.0" encoding="utf-8"?>
<!-- Generator: Adobe Illustrator 23.0.5, SVG Export Plug-In . SVG Version: 6.00 Build 0)  -->
<svg version="1.1" id="Layer_1" xmlns="http://www.w3.org/2000/svg" xmlns:xlink="http://www.w3.org/1999/xlink" x="0px" y="0px"
	 viewBox="0 0 218.4 226.5" enable-background="new 0 0 218.4 226.5" xml:space="preserve">
<g>
	<g>
		<circle fill="#F4F4F4" cx="111.5" cy="114.9" r="60.5"/>
	</g>
	<g>
		<path fill="#ECECEC" d="M111.7,178.6c-36.1,0-65.5-29.4-65.5-65.5s29.4-65.5,65.5-65.5s65.5,29.4,65.5,65.5
			S147.8,178.6,111.7,178.6z M111.7,57.5c-30.6,0-55.5,24.9-55.5,55.5c0,30.6,24.9,55.5,55.5,55.5s55.5-24.9,55.5-55.5
			C167.2,82.4,142.3,57.5,111.7,57.5z"/>
	</g>
	<g>
		<circle fill="#6CF082" cx="159.6" cy="150.6" r="5"/>
	</g>
	<g>
		<path fill="#7D7D7D" d="M95.4,101.8h-4.1v-1h0.9c-0.2-0.3-0.3-0.7-0.3-1.2c0-0.3,0.1-0.6,0.2-0.9c0.3-0.6,0.8-1,1.4-1.2
			c0.3-0.1,0.5-0.1,0.7-0.1c0.4,0,0.8,0.1,1.2,0.3v1.5h-1.2v-0.8c-0.7,0-1.1,0.4-1.1,1.2c0,0.3,0.1,0.6,0.3,0.8
			c0.2,0.2,0.5,0.3,0.8,0.3h1.2V101.8z M96.9,123.6v-3.7h-1.5v-16.2h-4.1v20H96.9z"/>
		<path fill="#7D7D7D" d="M110.8,121.6c-0.7,0.6-1.6,1.1-2.6,1.5c-1.1,0.4-2.2,0.5-3.5,0.5H99v-3.8h5.8c0.6,0,1.2-0.1,1.7-0.3
			c0.5-0.2,1-0.5,1.3-0.9c0.4-0.4,0.6-0.8,0.9-1.4c0.2-0.5,0.3-1.1,0.3-1.8c0-0.6-0.1-1.2-0.3-1.8c-0.2-0.5-0.5-1-0.9-1.4
			c-0.4-0.4-0.8-0.7-1.3-0.9c-0.5-0.2-1.1-0.3-1.7-0.3h-2.9v-3.7h2.9c1.3,0,2.4,0.2,3.5,0.5c1.1,0.4,2,0.9,2.7,1.6
			c0.8,0.7,1.3,1.5,1.8,2.5c0.4,1,0.6,2.2,0.6,3.5v1.1c0,1.1,0.3,1.9,0.8,2.4c0.5,0.5,1.2,0.8,2.1,0.8c0.5,0,1,0.2,1.3,0.6
			s0.5,0.8,0.5,1.3c0,0.5-0.2,1-0.5,1.3c-0.4,0.4-0.8,0.5-1.3,0.5h0c-1.2,0-2.2-0.2-3.1-0.5C112.2,122.8,111.5,122.3,110.8,121.6
			L110.8,121.6z"/>
		<path fill="#7D7D7D" d="M120.3,119.9c0.5,0,1,0.2,1.3,0.5c0.4,0.4,0.5,0.8,0.5,1.3c0,0.5-0.2,1-0.5,1.3c-0.4,0.4-0.8,0.5-1.3,0.5
			h-4.1c-0.5,0-1-0.2-1.3-0.5c-0.4-0.4-0.5-0.8-0.5-1.3c0-0.5,0.2-1,0.5-1.3c0.4-0.4,0.8-0.5,1.3-0.5H120.3z"/>
		<path fill="#7D7D7D" d="M120.3,119.9c0.9,0,1.6-0.3,2.1-0.8c0.5-0.5,0.8-1.4,0.8-2.6l0-7.2h6.1v3.7h-1.8v3.4
			c0,2.3-0.6,4.1-1.9,5.3c-1.3,1.2-3.1,1.9-5.3,1.9V119.9z M123.9,129.1c-0.4-0.4-0.7-0.8-0.7-1.4s0.2-1,0.7-1.4
			c0.4-0.3,0.9-0.5,1.5-0.5c0.6,0,1.1,0.2,1.5,0.5c0.4,0.3,0.7,0.8,0.7,1.4c0,0.6-0.2,1-0.7,1.4c-0.4,0.3-0.9,0.5-1.5,0.5
			C124.8,129.5,124.3,129.4,123.9,129.1z"/>
		<path fill="#7D7D7D" d="M135.5,101.8h-4.1v-1h0.9c-0.2-0.3-0.3-0.7-0.3-1.2c0-0.3,0.1-0.6,0.2-0.9c0.3-0.6,0.8-1,1.4-1.2
			c0.3-0.1,0.5-0.1,0.7-0.1c0.4,0,0.8,0.1,1.2,0.3v1.5h-1.2v-0.8c-0.7,0-1.1,0.4-1.1,1.2c0,0.3,0.1,0.6,0.3,0.8
			c0.2,0.2,0.5,0.3,0.8,0.3h1.2V101.8z M137.1,123.6v-3.7h-1.5v-16.2h-4.1v20H137.1z"/>
	</g>
	<g>
		<path fill="#6CF082" d="M111.7,178.6c-36.1,0-65.5-29.4-65.5-65.5s29.4-65.5,65.5-65.5s65.5,29.4,65.5,65.5
			c0,7.3-1.2,14.5-3.5,21.3c-0.9,2.6-3.7,4-6.4,3.1c-2.6-0.9-4-3.7-3.1-6.4c2-5.8,3-11.9,3-18c0-30.6-24.9-55.5-55.5-55.5
			s-55.5,24.9-55.5,55.5c0,30.6,24.9,55.5,55.5,55.5c9.6,0,19.1-2.5,27.4-7.2c2.4-1.4,5.5-0.5,6.8,1.9c1.4,2.4,0.5,5.5-1.9,6.8
			C134.3,175.6,123.1,178.6,111.7,178.6z"/>
	</g>
</g>
</svg>
