<svg xmlns="http://www.w3.org/2000/svg" width="147.153" height="185.466" viewBox="0 0 147.153 185.466">
  <g id="White_LOGO" data-name="White LOGO" transform="translate(-966.384 -501.896)">
    <path id="Path_221_1_" d="M1023.5,557.783a16.436,16.436,0,0,0-1.517-7.206,17.968,17.968,0,0,0-9.86-9.86,15.391,15.391,0,0,0-7.206-1.517,19.263,19.263,0,0,0-6.447,1.138,15.912,15.912,0,0,0-5.309,3.413,15.643,15.643,0,0,0-3.792,4.93,19.824,19.824,0,0,0-2.275,6.068,6.456,6.456,0,0,0-2.655.379c-.759.379-1.9.379-2.655.759a9.5,9.5,0,0,0-2.655,1.517,10.046,10.046,0,0,0-2.275,1.9,19.233,19.233,0,0,0-3.413,6.068,31.585,31.585,0,0,0-1.138,8.343v9.481h3.034a5.185,5.185,0,0,0,5.31-5.31V574.09a18.466,18.466,0,0,1,.379-4.551,9.369,9.369,0,0,1,1.517-3.413,7.931,7.931,0,0,1,4.93-2.655c.379,1.9,1.517,3.413,2.655,5.31a19.042,19.042,0,0,0,8.722,6.826,15.217,15.217,0,0,0,5.689,1.138,13.884,13.884,0,0,0,6.826-1.517l2.275-1.138a20.87,20.87,0,0,0,3.413-2.655,31.386,31.386,0,0,0,4.172-5.689,15.923,15.923,0,0,0,2.276-7.964Zm-9.481,4.172a5.9,5.9,0,0,1-2.275,3.034,8.256,8.256,0,0,1-3.034,1.9,13.478,13.478,0,0,1-3.792.759,4.81,4.81,0,0,1-2.275-.379c-.379,0-1.138-.379-1.517-.379a5.9,5.9,0,0,1-3.034-2.275,8.256,8.256,0,0,1-1.9-3.034,13.478,13.478,0,0,1-.758-3.792,11.222,11.222,0,0,1,.758-3.792,8.256,8.256,0,0,1,1.9-3.034,21.023,21.023,0,0,1,3.034-2.275,13.478,13.478,0,0,1,3.792-.759,11.216,11.216,0,0,1,3.792.759,5.9,5.9,0,0,1,3.034,2.275l.379.379a9.509,9.509,0,0,1,1.517,2.655,13.636,13.636,0,0,1,.759,4.172,4.592,4.592,0,0,1-.379,3.792Z" transform="translate(16.519 104.17)" fill="#fff"/>
    <g id="Group_319_1_" transform="translate(1038.082 626.243)">
      <path id="Path_222_1_" d="M962.511,446.1h-2.655a5.185,5.185,0,0,0-5.31,5.309v33.753H943.928V469.234h-2.655a5.185,5.185,0,0,0-5.309,5.309h0v17.824a13.63,13.63,0,0,1-.759,4.172,3.7,3.7,0,0,1-3.413,1.517h-1.9a16.418,16.418,0,0,1-1.9-.379l.379,7.964c.759,0,1.138.379,1.9.379h2.275c3.792,0,6.447-1.138,8.343-3.034s2.655-5.309,3.034-9.86h18.583V454.443a2.991,2.991,0,0,0,3.034-3.034v-1.9c0-1.9-1.137-3.413-3.033-3.413Z" transform="translate(-928 -446.1)" fill="#fff"/>
    </g>
    <g id="Group_320_1_" transform="translate(1047.928 603.905)">
      <path id="Path_223_1_" d="M985.854,533.928a2.991,2.991,0,0,1-3.034-3.034,68.034,68.034,0,0,0-57.266-67.126,3.058,3.058,0,1,1,.759-6.068h0a73.781,73.781,0,0,1,62.2,72.815C988.509,532.411,987.372,533.928,985.854,533.928Z" transform="translate(-922.9 -457.7)" fill="#fff"/>
    </g>
    <g id="Group_321_1_" transform="translate(966.384 603.905)">
      <path id="Path_224_1_" d="M969.1,533.928a2.991,2.991,0,0,0,3.034-3.034,68.034,68.034,0,0,1,57.266-67.126,3.058,3.058,0,1,0-.759-6.068h0a73.781,73.781,0,0,0-62.2,72.815A2.837,2.837,0,0,0,969.1,533.928Z" transform="translate(-966.384 -457.7)" fill="#fff"/>
    </g>
    <circle id="Ellipse_25_1_" cx="13.274" cy="13.274" r="13.274" transform="translate(1025.985 565.245)" fill="#fff"/>
    <g id="Group_322_1_" transform="translate(1059.888 512.727)">
      <path id="Path_225_1_" d="M922.875,551.4a2.186,2.186,0,0,1-2.275-2.275v-.759l4.172-12.894a5.327,5.327,0,0,0-.759-5.309l-5.31-7.206a10.872,10.872,0,0,1-.379-12.136l8.344-13.274a2.472,2.472,0,0,1,4.172,2.655L922.5,513.477a5.742,5.742,0,0,0,.379,6.447l5.31,7.206a11.233,11.233,0,0,1,1.517,9.86l-4.172,12.894A3.193,3.193,0,0,1,922.875,551.4Z" transform="translate(-916.661 -496.396)" fill="#fff"/>
    </g>
    <g id="Group_323_1_" transform="translate(1012.301 512.348)">
      <path id="Path_226_1_" d="M946.378,549.785a2.186,2.186,0,0,1-2.275-2.275,1.393,1.393,0,0,1,.379-1.138l5.688-11a8.341,8.341,0,0,0-.759-5.309l-5.309-7.206a10.872,10.872,0,0,1-.379-12.136l8.343-13.274a2.472,2.472,0,0,1,4.172,2.655L947.9,513.377a5.742,5.742,0,0,0,.379,6.447l5.309,7.206a11.233,11.233,0,0,1,1.517,9.86v.379l-6.068,11A3.286,3.286,0,0,1,946.378,549.785Z" transform="translate(-942.062 -496.296)" fill="#fff"/>
    </g>
    <g id="Group_324_1_" transform="translate(1037.839 501.896)">
      <path id="Path_227_1_" d="M930.882,553.868a2.186,2.186,0,0,1-2.275-2.275,1.393,1.393,0,0,1,.379-1.138l7.964-12.515a6.875,6.875,0,0,0-.759-4.93l-5.688-7.964a10.872,10.872,0,0,1-.379-12.136l6.068-9.86a2.472,2.472,0,0,1,4.172,2.655h0l-6.068,9.86a5.742,5.742,0,0,0,.379,6.447l5.31,7.206a11.233,11.233,0,0,1,1.517,9.86l-.379.379-7.964,12.894A2.743,2.743,0,0,1,930.882,553.868Z" transform="translate(-928.462 -501.896)" fill="#fff"/>
    </g>
    <path id="Path_228_1_" d="M991.81,547.728a5.7,5.7,0,0,0,4.172-1.517,6.09,6.09,0,0,0,1.9-4.172,4.4,4.4,0,0,0-1.517-3.792,6.824,6.824,0,0,0-8.344,0,5.519,5.519,0,0,0,.379,7.964A3.063,3.063,0,0,0,991.81,547.728Z" transform="translate(56.172 97.538)" fill="#fff"/>
  </g>
</svg>
