<?xml version="1.0" encoding="utf-8"?>
<!-- Generator: Adobe Illustrator 23.0.5, SVG Export Plug-In . SVG Version: 6.00 Build 0)  -->
<svg version="1.1" id="Layer_1" xmlns="http://www.w3.org/2000/svg" xmlns:xlink="http://www.w3.org/1999/xlink" x="0px" y="0px"
	 viewBox="0 0 1920 1080" enable-background="new 0 0 1920 1080" xml:space="preserve">
<path id="Path_221_1_" fill="#FFFFFF" d="M985.8,544.1c0-0.6-0.1-1.3-0.4-1.9c-0.5-1.2-1.4-2.1-2.6-2.6c-0.6-0.3-1.2-0.4-1.9-0.4
	c-0.6,0-1.1,0.1-1.7,0.3c-0.5,0.2-1,0.5-1.4,0.9c-0.4,0.4-0.8,0.8-1,1.3c-0.3,0.5-0.5,1.1-0.6,1.6c-0.2,0-0.5,0-0.7,0.1
	c-0.2,0.1-0.5,0.1-0.7,0.2c-0.2,0.1-0.5,0.2-0.7,0.4c-0.2,0.1-0.4,0.3-0.6,0.5c-0.4,0.5-0.7,1-0.9,1.6c-0.2,0.7-0.3,1.5-0.3,2.2v2.5
	h0.8c0.8,0,1.4-0.6,1.4-1.4v-1c0-0.4,0-0.8,0.1-1.2c0.1-0.3,0.2-0.7,0.4-0.9c0.3-0.4,0.8-0.6,1.3-0.7c0.1,0.5,0.4,0.9,0.7,1.4
	c0.6,0.8,1.4,1.5,2.3,1.8c0.5,0.2,1,0.3,1.5,0.3c0.6,0,1.3-0.1,1.8-0.4c0.2-0.1,0.4-0.2,0.6-0.3c0.3-0.2,0.6-0.4,0.9-0.7
	c0.4-0.4,0.8-1,1.1-1.5C985.6,545.5,985.8,544.8,985.8,544.1C985.8,544.1,985.8,544.1,985.8,544.1z M983.3,545.2
	c-0.1,0.3-0.3,0.6-0.6,0.8c-0.2,0.2-0.5,0.4-0.8,0.5c-0.3,0.1-0.7,0.2-1,0.2c-0.2,0-0.4,0-0.6-0.1c-0.1,0-0.3-0.1-0.4-0.1
	c-0.3-0.1-0.6-0.3-0.8-0.6c-0.2-0.2-0.4-0.5-0.5-0.8c-0.1-0.3-0.2-0.7-0.2-1c0-0.4,0.1-0.7,0.2-1c0.1-0.3,0.3-0.6,0.5-0.8
	c0.2-0.2,0.5-0.4,0.8-0.6c0.3-0.1,0.7-0.2,1-0.2c0.4,0,0.7,0.1,1,0.2c0.3,0.1,0.6,0.3,0.8,0.6c0,0,0.1,0.1,0.1,0.1
	c0.2,0.2,0.3,0.5,0.4,0.7c0.1,0.3,0.2,0.7,0.2,1.1C983.5,544.5,983.5,544.8,983.3,545.2L983.3,545.2z"/>
<g id="Group_319_1_" transform="translate(57.29 88.584)">
	<path id="Path_222_1_" fill="#FFFFFF" d="M937.1,446.1h-0.7c-0.8,0-1.4,0.6-1.4,1.4v8.9h-2.8v-4.2h-0.7c-0.8,0-1.4,0.6-1.4,1.4
		c0,0,0,0,0,0v4.7c0,0.4-0.1,0.8-0.2,1.1c-0.2,0.3-0.5,0.4-0.9,0.4c-0.2,0-0.3,0-0.5,0c-0.2,0-0.4-0.1-0.5-0.1l0.1,2.1
		c0.2,0,0.3,0.1,0.5,0.1c0.2,0,0.4,0,0.6,0c1,0,1.7-0.3,2.2-0.8c0.5-0.5,0.7-1.4,0.8-2.6h4.9v-10.2c0.5,0,0.8-0.4,0.8-0.8v-0.5
		C937.9,446.5,937.6,446.1,937.1,446.1C937.1,446.1,937.1,446.1,937.1,446.1z"/>
</g>
<g id="Group_320_1_" transform="translate(64.986 71.094)">
	<path id="Path_223_1_" fill="#FFFFFF" d="M939.5,477.8c-0.4,0-0.8-0.3-0.8-0.8c0-8.8-6.4-16.3-15.1-17.7c-0.4-0.1-0.7-0.4-0.7-0.9
		c0.1-0.4,0.4-0.7,0.9-0.7c0,0,0,0,0,0c9.4,1.5,16.4,9.6,16.4,19.2C940.2,477.4,939.9,477.8,939.5,477.8z"/>
</g>
<g id="Group_321_1_" transform="translate(0 71.094)">
	<path id="Path_224_1_" fill="#FFFFFF" d="M967.1,477.8c0.4,0,0.8-0.3,0.8-0.8c0-8.8,6.4-16.3,15.1-17.7c0.4-0.1,0.7-0.4,0.7-0.9
		c-0.1-0.4-0.4-0.7-0.9-0.7c0,0,0,0,0,0c-9.4,1.5-16.4,9.6-16.4,19.2C966.3,477.4,966.7,477.8,967.1,477.8z"/>
</g>
<circle id="Ellipse_25_1_" fill="#FFFFFF" cx="985.6" cy="522.1" r="3.5"/>
<g id="Group_322_1_" transform="translate(74.378 8.356)">
	<path id="Path_225_1_" fill="#FFFFFF" d="M918.3,510.9c-0.4,0-0.6-0.3-0.6-0.6c0-0.1,0-0.1,0-0.2l1.1-3.4c0.2-0.5,0.1-1-0.2-1.4
		l-1.4-1.9c-0.7-0.9-0.7-2.2-0.1-3.2l2.2-3.5c0.2-0.3,0.6-0.4,0.9-0.2s0.4,0.6,0.2,0.9l-2.2,3.5c-0.3,0.5-0.3,1.2,0.1,1.7l1.4,1.9
		c0.5,0.7,0.7,1.7,0.4,2.6l-1.1,3.4C918.9,510.7,918.6,510.9,918.3,510.9z"/>
</g>
<g id="Group_323_1_" transform="translate(36.43 8.356)">
	<path id="Path_226_1_" fill="#FFFFFF" d="M943.2,510.4c-0.4,0-0.6-0.3-0.6-0.6c0-0.1,0-0.2,0.1-0.3l1.5-2.9c0.1-0.5,0-1-0.2-1.4
		l-1.4-1.9c-0.7-0.9-0.7-2.2-0.1-3.2l2.2-3.5c0.2-0.3,0.6-0.4,0.9-0.2c0.3,0.2,0.4,0.6,0.2,0.9l-2.2,3.5c-0.3,0.5-0.3,1.2,0.1,1.7
		l1.4,1.9c0.5,0.7,0.7,1.7,0.4,2.6l0,0.1l-1.6,2.9C943.7,510.3,943.4,510.4,943.2,510.4z"/>
</g>
<g id="Group_324_1_" transform="translate(56.764)">
	<path id="Path_227_1_" fill="#FFFFFF" d="M929.1,515.6c-0.4,0-0.6-0.3-0.6-0.6c0-0.1,0-0.2,0.1-0.3l2.1-3.3c0.1-0.5,0-1-0.2-1.3
		L929,508c-0.7-0.9-0.7-2.2-0.1-3.2l1.6-2.6c0.2-0.3,0.6-0.4,0.9-0.2s0.4,0.6,0.2,0.9l0,0l-1.6,2.6c-0.3,0.5-0.3,1.2,0.1,1.7
		l1.4,1.9c0.5,0.7,0.7,1.7,0.4,2.6l-0.1,0.1l-2.1,3.4C929.5,515.5,929.3,515.6,929.1,515.6z"/>
</g>
<path id="Path_228_1_" fill="#FFFFFF" d="M987.9,539.7c0.4,0,0.8-0.1,1.1-0.4c0.3-0.3,0.5-0.7,0.5-1.1c0-0.4-0.1-0.8-0.4-1
	c-0.6-0.5-1.5-0.5-2.2,0c-0.3,0.3-0.4,0.6-0.4,1c0,0.4,0.1,0.8,0.5,1.1C987.2,539.6,987.5,539.8,987.9,539.7z"/>
</svg>
